<?xml version="1.0" standalone="no"?>
<!DOCTYPE svg PUBLIC "-//W3C//DTD SVG 20010904//EN"
 "http://www.w3.org/TR/2001/REC-SVG-20010904/DTD/svg10.dtd">
<svg version="1.0" xmlns="http://www.w3.org/2000/svg"
 width="300.000000pt" height="300.000000pt" viewBox="0 0 300.000000 300.000000"
 preserveAspectRatio="xMidYMid meet">
<metadata>
Created by potrace 1.14, written by Peter Selinger 2001-2017
</metadata>
<g transform="translate(0.000000,300.000000) scale(0.100000,-0.100000)"
fill="#000000" stroke="none">
<path d="M1340 2853 c-24 -4 -160 -31 -190 -38 -54 -13 -187 -64 -255 -98
-223 -111 -434 -305 -557 -512 -142 -238 -200 -462 -194 -746 2 -86 6 -160 9
-165 3 -5 8 -27 11 -49 14 -88 68 -248 122 -356 87 -175 247 -365 409 -484
143 -106 391 -216 540 -239 22 -4 60 -10 85 -14 109 -17 355 -7 468 19 26 6
54 12 62 14 8 2 53 16 100 33 451 156 784 542 886 1025 19 89 25 348 11 445
-26 183 -94 370 -194 532 -26 41 -49 77 -52 80 -4 3 -19 23 -36 45 -57 77
-207 215 -304 280 -147 98 -328 176 -471 204 -30 6 -66 13 -80 17 -28 7 -332
13 -370 7z"/>
</g>
</svg>
